<svg height="309" viewBox="0 0 382.944 47.385" width="2500" xmlns="http://www.w3.org/2000/svg"><g fill="#4c4a4d"><path d="m364.895 0c-5.712 0-11 1.968-14.701 5.643-3.552 3.512-5.752 8.362-5.752 15.002v25.742h7.57v-24.744c0-5.029 1.446-8.485 3.66-10.726 2.364-2.405 5.643-3.47 9.114-3.47 4.959 0 8.922 2.295 12.024 6.38l6.134-4.153c-3.976-6.204-10.794-9.674-18.049-9.674zm-70.558 0c-13.072 0-23.74 10.664-23.74 23.815s10.408 23.556 23.494 23.556c6.695 0 13.213-3.47 16.369-7.87v6.886h7.57v-22.64c0-7.064-2.555-12.652-6.642-16.738-4.4-4.399-10.602-7.009-17.051-7.009zm.123 7.447c8.868 0 16.068 6.94 16.068 16.245s-7.2 16.246-16.068 16.246-16.122-6.941-16.122-16.246 7.254-16.245 16.122-16.245zm-89.482-6.45v25.906c0 5.643 2.05 10.48 5.397 14.02 3.853 4.084 9.428 6.462 15.508 6.462s11.656-2.364 15.508-6.45c3.348-3.552 5.398-8.375 5.398-14.018v-25.92h-7.57v24.923c0 4.591-1.448 7.734-3.662 10.043-2.555 2.664-6.135 3.976-9.674 3.976s-7.118-1.325-9.673-3.976c-2.228-2.295-3.662-5.452-3.662-10.043v-24.923z" stroke-width="8.955"/><path d="m133.6 23.692c0-13.144 10.358-23.692 23.817-23.692 8.744 0 15.63 3.593 19.84 9.742l-6.259 4.154c-3.17-4.222-7.87-6.45-13.581-6.45-8.676 0-16.068 6.135-16.068 16.246 0 9.36 6.695 16.246 16.191 16.246 7.993 0 14.141-4.905 15.686-12.092h-10.236v-7.255h17.926c.123.929.246 1.98.246 3.101 0 12.953-10.357 23.693-23.747 23.693s-23.815-10.48-23.815-23.693z" stroke-width="2.369"/><path d="m86.08 0c-13.077 0-23.749 10.67-23.749 23.815s10.412 23.556 23.502 23.556c6.694 0 13.198-3.47 16.368-7.87v6.886h7.57v-22.64c0-7.064-2.542-12.652-6.64-16.738-4.4-4.399-10.603-7.009-17.053-7.009zm.15 7.447c8.867 0 16.068 6.94 16.068 16.245s-7.201 16.246-16.069 16.246-16.122-6.941-16.122-16.246 7.255-16.245 16.122-16.245zm-55.283-6.45v24.731c0 5.028-1.448 8.485-3.661 10.726-2.364 2.405-5.643 3.47-9.113 3.47-4.96 0-8.923-2.281-12.025-6.38l-6.148 4.153c3.976 6.204 10.794 9.674 18.05 9.674 5.71 0 10.998-1.967 14.701-5.643 3.553-3.511 5.766-8.362 5.766-15.002v-25.729z" stroke-width="8.955"/></g></svg>